<svg version="1.1" xmlns="http://www.w3.org/2000/svg" xmlns:xlink="http://www.w3.org/1999/xlink" x="0px" y="0px"
	 viewBox="0 0 74 39" style="enable-background:new 0 0 74 39;" xml:space="preserve">
<path fill-rule="evenodd" clip-rule="evenodd" d="M41.1,0.4v4h-7.9V26h-5V4.4h-7.7v-4C20.5,0.4,41.1,0.4,41.1,0.4z M10,16.6H6.2V26H1.3V0.4H10
	c1.4,0,2.7,0.2,3.8,0.6s2.1,1,2.9,1.7c0.8,0.7,1.4,1.6,1.8,2.6c0.4,1,0.7,2.1,0.7,3.4c0,1.1-0.2,2.2-0.7,3.2c-0.4,1-1,1.8-1.8,2.5
	s-1.8,1.3-2.9,1.7C12.7,16.4,11.4,16.6,10,16.6z M6.2,4.4v8.2H10c0.7,0,1.3-0.1,1.8-0.3s0.9-0.5,1.3-0.9c0.3-0.4,0.6-0.8,0.8-1.2
	c0.2-0.5,0.3-1,0.3-1.5c0-0.6-0.1-1.2-0.3-1.7s-0.4-1-0.8-1.4c-0.4-0.4-0.8-0.7-1.3-0.9c-0.5-0.2-1.1-0.3-1.8-0.3
	C10,4.4,6.2,4.4,6.2,4.4z M60.4,10.9v3.9H49.9V22h12.3v4H44.9V0.4h17.2v4H49.9v6.5H60.4z M54.4,32.9v1.2c0,0.3,0,0.6-0.1,0.8
	s-0.2,0.4-0.3,0.6c-0.1,0.2-0.3,0.3-0.5,0.4C53.3,36,53.1,36,52.8,36s-0.5,0-0.7-0.1s-0.4-0.2-0.5-0.4s-0.2-0.4-0.3-0.6
	c-0.1-0.2-0.1-0.5-0.1-0.8v-1.2c0-0.3,0-0.6,0.1-0.8s0.2-0.5,0.3-0.6c0.1-0.2,0.3-0.3,0.5-0.4s0.4-0.1,0.7-0.1s0.5,0,0.7,0.1
	s0.4,0.2,0.5,0.4s0.2,0.4,0.3,0.6C54.3,32.3,54.4,32.6,54.4,32.9z M51.8,33.8V34l1.9-1.5c0-0.2-0.1-0.3-0.1-0.4
	c0-0.1-0.1-0.2-0.2-0.3s-0.2-0.2-0.3-0.2s-0.2-0.1-0.4-0.1s-0.3,0-0.4,0.1c-0.1,0-0.2,0.1-0.3,0.2s-0.2,0.3-0.2,0.4
	c0,0.2-0.1,0.4-0.1,0.6v0.8L51.8,33.8L51.8,33.8z M53.7,34.9c0.1-0.2,0.1-0.4,0.1-0.6v-0.7v-0.2v-0.2l-1.9,1.5
	c0,0.2,0.1,0.3,0.1,0.4c0.1,0.1,0.1,0.2,0.2,0.3s0.2,0.1,0.3,0.2c0.1,0,0.2,0.1,0.4,0.1c0.1,0,0.3,0,0.4-0.1c0.1,0,0.2-0.1,0.3-0.2
	C53.6,35.2,53.6,35,53.7,34.9z M56.6,35.9c-0.1-0.1-0.1-0.2-0.1-0.3s0-0.2,0.1-0.3s0.2-0.1,0.4-0.1s0.3,0,0.4,0.1s0.1,0.2,0.1,0.3
	s0,0.2-0.1,0.3S57.2,36,57,36C56.8,36.1,56.6,36,56.6,35.9z M61.4,31v5h-0.6v-4.2l-1.3,0.5v-0.6L61.4,31L61.4,31z"
	/>
</svg>
