<svg version="1.1" xmlns="http://www.w3.org/2000/svg" xmlns:xlink="http://www.w3.org/1999/xlink" x="0px" y="0px"
	 viewBox="0 0 74 39" style="enable-background:new 0 0 74 39;" xml:space="preserve">
<path fill-rule="evenodd" clip-rule="evenodd" d="M21.1,0.4v4h-7.9V26h-5V4.4H0.5v-4H21.1z M38,16.6h-3.8V26h-4.9V0.4H38c1.4,0,2.7,0.2,3.8,0.6
	c1.1,0.4,2.1,1,2.9,1.7c0.8,0.7,1.4,1.6,1.8,2.6c0.4,1,0.7,2.1,0.7,3.4c0,1.1-0.2,2.2-0.7,3.2c-0.4,1-1,1.8-1.8,2.5
	c-0.8,0.7-1.8,1.3-2.9,1.7C40.7,16.4,39.4,16.6,38,16.6z M34.2,4.4v8.2H38c0.7,0,1.3-0.1,1.8-0.3c0.5-0.2,0.9-0.5,1.3-0.9
	c0.3-0.4,0.6-0.8,0.8-1.2c0.2-0.5,0.3-1,0.3-1.5c0-0.6-0.1-1.2-0.3-1.7c-0.2-0.5-0.4-1-0.8-1.4c-0.4-0.4-0.8-0.7-1.3-0.9
	c-0.5-0.2-1.1-0.3-1.8-0.3H34.2z M71.4,10.9v3.9H60.9V22h12.3v4H55.9V0.4h17.2v4H60.9v6.5H71.4z M66.4,34.9v1.2c0,0.3,0,0.6-0.1,0.8
	c-0.1,0.2-0.2,0.4-0.3,0.6c-0.1,0.2-0.3,0.3-0.5,0.4c-0.2,0.1-0.4,0.1-0.7,0.1c-0.3,0-0.5,0-0.7-0.1c-0.2-0.1-0.4-0.2-0.5-0.4
	c-0.1-0.2-0.2-0.4-0.3-0.6c-0.1-0.2-0.1-0.5-0.1-0.8v-1.2c0-0.3,0-0.6,0.1-0.8c0.1-0.2,0.2-0.5,0.3-0.6c0.1-0.2,0.3-0.3,0.5-0.4
	c0.2-0.1,0.4-0.1,0.7-0.1c0.3,0,0.5,0,0.7,0.1c0.2,0.1,0.4,0.2,0.5,0.4c0.1,0.2,0.2,0.4,0.3,0.6C66.3,34.3,66.4,34.6,66.4,34.9z
	 M63.8,35.8V36l1.9-1.5c0-0.2-0.1-0.3-0.1-0.4c0-0.1-0.1-0.2-0.2-0.3c-0.1-0.1-0.2-0.2-0.3-0.2c-0.1,0-0.2-0.1-0.4-0.1
	c-0.2,0-0.3,0-0.4,0.1c-0.1,0-0.2,0.1-0.3,0.2c-0.1,0.1-0.2,0.3-0.2,0.4c0,0.2-0.1,0.4-0.1,0.6v0.8V35.8z M65.7,36.9
	c0.1-0.2,0.1-0.4,0.1-0.6v-0.7v-0.2v-0.2l-1.9,1.5c0,0.2,0.1,0.3,0.1,0.4c0.1,0.1,0.1,0.2,0.2,0.3c0.1,0.1,0.2,0.1,0.3,0.2
	c0.1,0,0.2,0.1,0.4,0.1c0.1,0,0.3,0,0.4-0.1c0.1,0,0.2-0.1,0.3-0.2C65.6,37.2,65.6,37,65.7,36.9z M68.6,37.9
	c-0.1-0.1-0.1-0.2-0.1-0.3c0-0.1,0-0.2,0.1-0.3c0.1-0.1,0.2-0.1,0.4-0.1c0.2,0,0.3,0,0.4,0.1c0.1,0.1,0.1,0.2,0.1,0.3
	c0,0.1,0,0.2-0.1,0.3c-0.1,0.1-0.2,0.1-0.4,0.1C68.8,38.1,68.6,38,68.6,37.9z M73.4,33v5h-0.6v-4.2l-1.3,0.5v-0.6L73.4,33L73.4,33z"
	/>
</svg>
