<svg version="1.1" xmlns="http://www.w3.org/2000/svg" xmlns:xlink="http://www.w3.org/1999/xlink" x="0px" y="0px"
	 viewBox="0 0 132 40.5" style="enable-background:new 0 0 132 40.5;" xml:space="preserve">
	<g>
		<path d="M43.4,40h39.8V0.1H43.4V40z M46.4,3.1h33.8V37H46.4V3.1z"/>
		<polygon points="56,12.9 61.7,12.9 61.7,28.9 65.4,28.9 65.4,12.9 71.2,12.9 71.2,10 56,10 	"/>
		<path d="M24.7,11.6c-0.6-0.5-1.3-1-2.2-1.3s-1.8-0.4-2.8-0.4h-6.5V29h3.7v-7h2.8c1,0,2-0.1,2.8-0.4c0.8-0.3,1.6-0.7,2.2-1.3
			c0.6-0.5,1-1.1,1.3-1.9c0.4-0.7,0.5-1.6,0.5-2.4c0-1-0.2-1.8-0.5-2.5C25.7,12.8,25.3,12.1,24.7,11.6z M22.6,17.2
			c-0.1,0.3-0.4,0.6-0.6,0.9c-0.3,0.3-0.6,0.5-1,0.7c-0.4,0.1-0.8,0.2-1.3,0.2h-2.8v-6.1h2.8c0.5,0,1,0.1,1.3,0.2s0.7,0.4,1,0.7
			c0.3,0.3,0.4,0.7,0.6,1c0.1,0.4,0.2,0.8,0.2,1.3C22.8,16.4,22.7,16.8,22.6,17.2z"/>
		<polygon points="105.5,20.6 113.3,20.6 113.3,17.7 105.5,17.7 105.5,12.9 114.5,12.9 114.5,9.9 101.7,9.9 101.7,29 114.6,29 
			114.6,26 105.5,26 	"/>
		<path d="M108.2,0.1c-11,0-20,9-20,20s9,20,20,20s20-9,20-20S119.2,0.1,108.2,0.1z M108.2,37c-9.4,0-17-7.6-17-17s7.6-17,17-17
			s17,7.6,17,17S117.5,37,108.2,37z"/>
		<path d="M10.7,26.5l-7.2,7.2V3h30.7l-7.3,7.3c0.6,0.7,1.1,1.4,1.4,2.3c0,0.1,0.1,0.2,0.1,0.3L41.4,0h-41v41l10.2-10.2V26.5z"/>
	</g>
</svg>
